<?xml version="1.0" standalone="no"?>
<!DOCTYPE svg PUBLIC "-//W3C//DTD SVG 20010904//EN"
 "http://www.w3.org/TR/2001/REC-SVG-20010904/DTD/svg10.dtd">
<svg version="1.0" xmlns="http://www.w3.org/2000/svg"
 width="1041.000000pt" height="1041.000000pt" viewBox="0 0 1041.000000 1041.000000"
 preserveAspectRatio="xMidYMid meet">
<metadata>
Created by potrace 1.14, written by Peter Selinger 2001-2017
</metadata>
<g transform="translate(0.000000,1041.000000) scale(0.100000,-0.100000)"
fill="#000000" stroke="none">
<path d="M5389 10406 c-2 -2 -47 -6 -99 -10 -52 -3 -104 -8 -115 -10 -11 -2
-47 -7 -80 -11 -72 -9 -91 -12 -130 -19 -16 -3 -46 -8 -65 -11 -106 -17 -419
-98 -561 -145 -175 -58 -349 -130 -529 -219 -293 -145 -463 -179 -980 -196
-320 -11 -555 -31 -700 -60 -14 -3 -38 -8 -55 -10 -249 -43 -536 -171 -730
-324 -81 -64 -213 -193 -272 -266 -140 -175 -268 -419 -332 -636 -13 -41 -26
-85 -31 -99 -5 -14 -12 -42 -15 -64 -3 -21 -7 -42 -10 -46 -4 -6 -24 -127 -39
-230 -19 -135 -25 -406 -12 -570 7 -97 35 -320 46 -360 5 -19 11 -51 14 -70
10 -61 17 -94 23 -115 4 -11 8 -24 9 -30 7 -39 62 -228 94 -324 62 -183 70
-234 66 -416 -2 -88 -6 -171 -9 -185 -3 -14 -8 -42 -11 -63 -19 -124 -68 -325
-133 -547 -25 -85 -51 -175 -58 -200 -7 -25 -35 -119 -63 -210 -86 -283 -155
-548 -176 -680 -3 -19 -11 -66 -17 -105 -22 -131 -16 -400 10 -505 26 -106
113 -264 173 -315 86 -74 132 -103 273 -176 629 -320 928 -597 1055 -977 31
-92 63 -233 75 -327 3 -27 8 -63 10 -80 8 -63 17 -131 21 -170 7 -74 15 -140
19 -165 2 -14 7 -45 10 -70 3 -25 10 -67 15 -95 5 -27 12 -66 15 -85 24 -148
96 -364 147 -445 21 -32 110 -138 143 -168 273 -256 814 -461 1425 -542 25 -3
56 -8 70 -10 14 -2 57 -7 97 -10 40 -4 85 -8 100 -10 191 -24 807 -24 1008 0
17 2 62 6 100 10 39 4 78 9 89 11 10 2 44 6 75 10 31 3 58 8 61 9 3 2 26 6 50
10 85 12 265 54 385 89 228 67 363 129 589 275 317 204 646 386 876 484 19 8
55 24 80 35 158 69 486 170 743 228 9 2 25 6 35 8 9 3 49 12 87 21 93 22 89
21 175 44 108 28 236 68 257 79 10 6 22 10 26 10 25 0 284 110 429 182 264
132 420 234 542 354 92 92 148 171 186 266 24 58 31 83 47 170 8 42 8 261 0
330 -7 59 -30 205 -43 270 -3 14 -7 36 -9 50 -2 14 -17 95 -34 180 -34 176
-37 191 -51 280 -6 36 -13 76 -15 90 -2 14 -6 39 -9 55 -3 17 -8 54 -11 84 -3
30 -8 57 -10 60 -1 3 -6 44 -10 91 -4 47 -8 87 -10 90 -2 3 -6 55 -10 115 -4
61 -9 126 -11 145 -5 46 -4 593 0 645 2 22 7 85 11 140 3 55 8 114 10 130 2
17 7 57 10 90 12 113 25 218 31 250 2 11 7 40 10 65 3 25 8 54 10 65 2 11 9
49 15 85 5 36 15 85 20 110 6 25 12 54 13 65 7 48 52 249 87 389 12 43 22 86
24 95 2 9 13 52 24 95 30 114 36 159 35 271 -2 239 -89 348 -472 588 -68 42
-125 77 -127 77 -6 0 -150 99 -245 168 -500 365 -865 915 -1139 1716 -60 175
-71 201 -126 286 -98 153 -250 300 -446 430 -118 78 -284 168 -399 214 -36 15
-75 31 -87 36 -13 6 -33 14 -45 19 -32 14 -228 75 -318 100 -91 24 -295 67
-369 76 -30 4 -62 8 -72 10 -10 2 -49 7 -86 10 -37 4 -77 9 -88 12 -23 5 -581
14 -586 9z"/>
</g>
</svg>
