<svg width="52" height="45" viewBox="0 0 52 45" fill="none" xmlns="http://www.w3.org/2000/svg">
<path d="M50.4791 3.24924C50.5674 2.7253 50.372 2.19376 49.9653 1.85184C49.5586 1.50993 49.0014 1.40868 48.5004 1.58566L2.50037 17.8356C1.93179 18.0365 1.53876 18.5583 1.50269 19.1602C1.46661 19.7622 1.79451 20.3272 2.33503 20.5945L15.4779 27.0945C15.9255 27.3158 16.4539 27.3 16.8874 27.0521L29.2284 19.9963L21.6287 27.9648C21.3219 28.2864 21.1736 28.7276 21.2238 29.1692C21.2739 29.6109 21.5174 30.0076 21.8884 30.2523L41.6028 43.2523C42.0262 43.5315 42.562 43.5778 43.0271 43.3754C43.4921 43.173 43.8234 42.7494 43.9077 42.2492L50.4791 3.24924Z" stroke="#F5F5F5" stroke-width="3" stroke-linecap="round" stroke-linejoin="round"/>
</svg>
