<svg width="51" height="51" viewBox="0 0 51 51" fill="none" xmlns="http://www.w3.org/2000/svg">
<path d="M40.0556 6.73878L41.3307 5.12H39.27H37.4858H37.0005L36.7003 5.50121L7.37444 42.7312L6.09934 44.35H8.16H9.94419H10.4295L10.7298 43.9688L40.0556 6.73878Z" fill="#F5F5F5" stroke="#F5F5F5" stroke-width="2"/>
<path d="M32.9075 43.6159L33.3575 44.2176H34.1088H41.5956H44.5907L42.7968 41.8192L17.0367 7.37888L16.5867 6.77731H15.8355H8.35381H5.35905L7.15255 9.17563L32.9075 43.6159Z" fill="black" stroke="#F5F5F5" stroke-width="3"/>
<path d="M15.453 9.0423L40.0656 41.9526H34.4913L9.87871 9.0423H15.453ZM16.218 7.5123H15.453H9.87871H6.82381L8.65471 9.9603L33.2673 42.8706L33.7263 43.4826H34.4913H40.0656H43.1205L41.2896 41.0346L16.677 8.1243L16.218 7.5123Z" fill="#F5F5F5"/>
</svg>
